<?xml version="1.0" encoding="iso-8859-1"?>
<!-- Generator: Adobe Illustrator 19.0.0, SVG Export Plug-In . SVG Version: 6.00 Build 0)  -->
<svg version="1.1" id="Capa_1" xmlns="http://www.w3.org/2000/svg" xmlns:xlink="http://www.w3.org/1999/xlink" x="0px" y="0px"
	 viewBox="0 0 472 472" style="enable-background:new 0 0 472 472;" xml:space="preserve">
<path style="fill:#FBB540;" d="M304,355.988l17.656-128h54.352l-8.008,64h80l-8.664,64H304z"/>
<path style="fill:#DBDBDB;" d="M184,123.988h152l-32,232H80l25.376-184"/>
<g>
	<path style="fill:#62666A;" d="M152,435.988c-17.673,0-32-14.327-32-32s14.327-32,32-32s32,14.327,32,32
		S169.673,435.988,152,435.988z M152,387.988c-8.837,0-16,7.163-16,16s7.163,16,16,16s16-7.163,16-16S160.837,387.988,152,387.988z"
		/>
	<path style="fill:#62666A;" d="M368,435.988c-17.673,0-32-14.327-32-32s14.327-32,32-32s32,14.327,32,32
		S385.673,435.988,368,435.988z M368,387.988c-8.837,0-16,7.163-16,16s7.163,16,16,16s16-7.163,16-16S376.837,387.988,368,387.988z"
		/>
</g>
<path style="fill:#D9D9D9;" d="M448,291.988h-80l8-64h24.6c27.013,0.004,48.909,21.905,48.905,48.919
	c0,2.025-0.126,4.048-0.377,6.057L448,291.988z"/>
<path style="fill:#F0F0F0;" d="M400.6,227.988H392l-8,64h64l1.128-9.024c3.349-26.805-15.666-51.25-42.471-54.599
	C404.648,228.115,402.625,227.989,400.6,227.988L400.6,227.988z"/>
<path style="fill:#EA9D2D;" d="M376,227.988h-54.344l4.416-32H368L376,227.988z"/>
<g>
	<circle style="fill:#FBB540;" cx="118" cy="107.988" r="64"/>
	<g>
		<path id="SVGCleanerId_0" style="fill:#FBB540;" d="M32,203.988h48v16H32V203.988z"/>
	</g>
	<g>
		<path id="SVGCleanerId_1" style="fill:#FBB540;" d="M0,299.988h48v16H0V299.988z"/>
	</g>
	<g>
		<path id="SVGCleanerId_2" style="fill:#FBB540;" d="M16,251.988h48v16H16V251.988z"/>
	</g>
</g>
<g>
	<path style="fill:#D68F29;" d="M139.56,130.644l-24-16c-2.225-1.484-3.56-3.982-3.56-6.656v-40h16v35.72l20.44,13.6L139.56,130.644
		z"/>
	<path style="fill:#D68F29;" d="M352,315.988h64v16h-64V315.988z"/>
</g>
<g>
	<path style="fill:#B9B9B9;" d="M200,315.988h64v16h-64V315.988z"/>
	<path style="fill:#B9B9B9;" d="M168,315.988h16v16h-16V315.988z"/>
	<path style="fill:#B9B9B9;" d="M136,315.988h16v16h-16V315.988z"/>
	<path style="fill:#B9B9B9;" d="M392,403.988h72v-48H56v48h72H392z"/>
</g>
<path style="fill:#B47923;" d="M326.072,195.988l-4.416,32h16l4.416-32H326.072z"/>
<path style="fill:#D68F29;" d="M321.656,227.988l-17.656,128h16l17.656-128H321.656z"/>
<path d="M96.648,176.788l-23.624,171.2H56c-4.418,0-8,3.582-8,8v40c0,4.418,3.582,8,8,8h64c0,17.673,14.327,32,32,32
	s32-14.327,32-32h152c0,17.673,14.327,32,32,32s32-14.327,32-32h64c4.418,0,8-3.582,8-8v-40c0-4.418-3.582-8-8-8h-15.512
	l7.44-54.928v-0.048l1.136-9.024c3.919-31.182-18.182-59.637-49.364-63.556c-2.355-0.296-4.727-0.444-7.1-0.444h-18.352
	l-6.488-25.944c-0.892-3.559-4.091-6.056-7.76-6.056h-32.752l8.68-62.904c0.605-4.377-2.452-8.415-6.829-9.021
	c-0.364-0.05-0.732-0.076-1.099-0.075H189.528c4.402-39.52-24.067-75.126-63.587-79.528s-75.126,24.067-79.528,63.587
	C42.591,134.364,63.668,166.563,96.648,176.788L96.648,176.788z M152,419.988c-8.837,0-16-7.163-16-16h32
	C168,412.825,160.837,419.988,152,419.988z M368,419.988c-8.837,0-16-7.163-16-16h32C384,412.825,376.837,419.988,368,419.988z
	 M456,387.988H64v-24h392V387.988z M313.184,347.988l6.616-48l8.8-64h38.304l-6.872,55.008c-0.548,4.384,2.562,8.382,6.946,8.93
	c0.339,0.042,0.68,0.063,1.022,0.062h70.84l-6.496,48H313.184z M431.264,249.82c7.764,8.799,11.379,20.507,9.928,32.152
	l-0.256,2.016h-63.872l6-48H400.6C412.332,235.989,423.499,241.026,431.264,249.82z M365.76,219.988h-34.928l2.208-16h28.712
	L365.76,219.988z M326.824,131.988l-22.464,162.84l-7.336,53.16H89.176l23.2-168.288c1.856,0.144,3.712,0.288,5.6,0.288
	c30.476-0.054,57.623-19.273,67.8-48H326.824z M118,51.988c30.928,0,56,25.072,56,56s-25.072,56-56,56s-56-25.072-56-56
	C62.035,77.075,87.087,52.024,118,51.988z"/>
<path id="SVGCleanerId_0_1_" d="M32,203.988h48v16H32V203.988z"/>
<path id="SVGCleanerId_1_1_" d="M0,299.988h48v16H0V299.988z"/>
<path id="SVGCleanerId_2_1_" d="M16,251.988h48v16H16V251.988z"/>
<path d="M115.56,114.644l24,16l8.88-13.312L128,103.708v-35.72h-16v40C112,110.663,113.335,113.16,115.56,114.644z"/>
<path d="M352,315.988h64v16h-64V315.988z"/>
<path d="M200,315.988h64v16h-64V315.988z"/>
<path d="M168,315.988h16v16h-16V315.988z"/>
<path d="M136,315.988h16v16h-16V315.988z"/>
<g>
</g>
<g>
</g>
<g>
</g>
<g>
</g>
<g>
</g>
<g>
</g>
<g>
</g>
<g>
</g>
<g>
</g>
<g>
</g>
<g>
</g>
<g>
</g>
<g>
</g>
<g>
</g>
<g>
</g>
</svg>
