<svg width="1144" height="652" viewBox="0 0 1144 652" fill="none" xmlns="http://www.w3.org/2000/svg">
<g id="undraw_logistics_x4dc 1" clip-path="url(#clip0)">
<g id="Vector" opacity="0.8">
<path d="M1144 430.57C1144.06 463.666 1135.03 496.142 1117.88 524.45C1117.88 559.07 1101.74 590.45 1075.56 613.32C1069.01 619.047 1061.95 624.171 1054.48 628.63C1054.18 628.82 1053.87 629 1053.56 629.18C1053 629.51 1052.44 629.84 1051.87 630.18L1051.34 630.49C1026.56 644.301 998.629 651.473 970.26 651.31H217.17C165.24 651.31 118.23 633.23 84.17 604.01C50.11 574.79 29.12 534.35 29.12 489.75C10.0474 460.381 -0.0702412 426.098 -2.97997e-06 391.08C-2.97997e-06 291.94 79.24 211.57 177 211.57C180.46 211.57 183.89 211.69 187.3 211.88C248.64 107.28 387 34.34 547.74 34.34C646.56 34.34 736.89 61.89 806.08 107.41C832.29 92.5939 861.892 84.8245 892 84.86C989.74 84.86 1069 165.23 1069 264.37C1068.99 270.643 1068.65 276.911 1068 283.15C1091.56 299.828 1110.76 321.928 1123.99 347.585C1137.22 373.242 1144.08 401.704 1144 430.57V430.57Z" fill="#D7D7D7"/>
<path d="M1144 430.57C1144.06 463.666 1135.03 496.142 1117.88 524.45C1117.88 559.07 1101.74 590.45 1075.56 613.32C1069.01 619.047 1061.95 624.171 1054.48 628.63C1054.18 628.82 1053.87 629 1053.56 629.18C1053 629.51 1052.44 629.84 1051.87 630.18L1051.34 630.49C1026.56 644.301 998.629 651.473 970.26 651.31H217.17C165.24 651.31 118.23 633.23 84.17 604.01C50.11 574.79 29.12 534.35 29.12 489.75C10.0474 460.381 -0.0702412 426.098 -2.97997e-06 391.08C-2.97997e-06 291.94 79.24 211.57 177 211.57C180.46 211.57 183.89 211.69 187.3 211.88C248.64 107.28 387 34.34 547.74 34.34C646.56 34.34 736.89 61.89 806.08 107.41C832.29 92.5939 861.892 84.8245 892 84.86C989.74 84.86 1069 165.23 1069 264.37C1068.99 270.643 1068.65 276.911 1068 283.15C1091.56 299.828 1110.76 321.928 1123.99 347.585C1137.22 373.242 1144.08 401.704 1144 430.57V430.57Z" fill="url(#paint0_linear)"/>
</g>
<path id="Vector_2" opacity="0.1" d="M413 487.26C629.496 487.26 805 482.559 805 476.76C805 470.961 629.496 466.26 413 466.26C196.504 466.26 21 470.961 21 476.76C21 482.559 196.504 487.26 413 487.26Z" fill="#6C63FF"/>
<g id="Group" opacity="0.7">
<path id="Vector_3" opacity="0.7" d="M267 399.26H142V468.26H267V399.26Z" fill="#65617D"/>
<path id="Vector_4" opacity="0.1" d="M224 411.26H186V419.26H224V411.26Z" fill="black"/>
<path id="Vector_5" opacity="0.1" d="M219.25 412.26H190.75V418.26H219.25V412.26Z" fill="black"/>
<path id="Vector_6" opacity="0.7" d="M394 399.26H269V468.26H394V399.26Z" fill="#65617D"/>
<path id="Vector_7" opacity="0.1" d="M351 411.26H313V419.26H351V411.26Z" fill="black"/>
<path id="Vector_8" opacity="0.1" d="M346.25 412.26H317.75V418.26H346.25V412.26Z" fill="black"/>
<path id="Vector_9" opacity="0.7" d="M267 328.26H142V397.26H267V328.26Z" fill="#65617D"/>
<path id="Vector_10" opacity="0.1" d="M224 340.26H186V348.26H224V340.26Z" fill="black"/>
<path id="Vector_11" opacity="0.1" d="M219.25 341.26H190.75V347.26H219.25V341.26Z" fill="black"/>
<path id="Vector_12" opacity="0.7" d="M394 328.26H269V397.26H394V328.26Z" fill="#65617D"/>
<path id="Vector_13" opacity="0.1" d="M351 340.26H313V348.26H351V340.26Z" fill="black"/>
<path id="Vector_14" opacity="0.1" d="M346.25 341.26H317.75V347.26H346.25V341.26Z" fill="black"/>
<path id="Vector_15" opacity="0.7" d="M267 256.26H142V325.26H267V256.26Z" fill="#65617D"/>
<path id="Vector_16" opacity="0.1" d="M224 268.26H186V276.26H224V268.26Z" fill="black"/>
<path id="Vector_17" opacity="0.1" d="M219.25 269.26H190.75V275.26H219.25V269.26Z" fill="black"/>
<path id="Vector_18" opacity="0.7" d="M394 256.26H269V325.26H394V256.26Z" fill="#65617D"/>
<path id="Vector_19" opacity="0.1" d="M351 268.26H313V276.26H351V268.26Z" fill="black"/>
<path id="Vector_20" opacity="0.1" d="M346.25 269.26H317.75V275.26H346.25V269.26Z" fill="black"/>
<path id="Vector_21" opacity="0.7" d="M394 184.26H269V253.26H394V184.26Z" fill="#65617D"/>
<path id="Vector_22" opacity="0.1" d="M351 196.26H313V204.26H351V196.26Z" fill="black"/>
<path id="Vector_23" opacity="0.1" d="M346.25 197.26H317.75V203.26H346.25V197.26Z" fill="black"/>
</g>
<g id="Group_2" opacity="0.7">
<path id="Vector_24" opacity="0.7" d="M521 398.26H396V467.26H521V398.26Z" fill="#65617D"/>
<path id="Vector_25" opacity="0.1" d="M478 410.26H440V418.26H478V410.26Z" fill="black"/>
<path id="Vector_26" opacity="0.1" d="M473.25 411.26H444.75V417.26H473.25V411.26Z" fill="black"/>
<path id="Vector_27" opacity="0.7" d="M648 398.26H523V467.26H648V398.26Z" fill="#65617D"/>
<path id="Vector_28" opacity="0.1" d="M605 410.26H567V418.26H605V410.26Z" fill="black"/>
<path id="Vector_29" opacity="0.1" d="M600.25 411.26H571.75V417.26H600.25V411.26Z" fill="black"/>
<path id="Vector_30" opacity="0.7" d="M521 327.26H396V396.26H521V327.26Z" fill="#65617D"/>
<path id="Vector_31" opacity="0.1" d="M478 339.26H440V347.26H478V339.26Z" fill="black"/>
<path id="Vector_32" opacity="0.1" d="M473.25 340.26H444.75V346.26H473.25V340.26Z" fill="black"/>
<path id="Vector_33" opacity="0.7" d="M648 327.26H523V396.26H648V327.26Z" fill="#65617D"/>
<path id="Vector_34" opacity="0.1" d="M605 339.26H567V347.26H605V339.26Z" fill="black"/>
<path id="Vector_35" opacity="0.1" d="M600.25 340.26H571.75V346.26H600.25V340.26Z" fill="black"/>
<path id="Vector_36" opacity="0.7" d="M521 255.26H396V324.26H521V255.26Z" fill="#65617D"/>
<path id="Vector_37" opacity="0.1" d="M478 267.26H440V275.26H478V267.26Z" fill="black"/>
<path id="Vector_38" opacity="0.1" d="M473.25 268.26H444.75V274.26H473.25V268.26Z" fill="black"/>
<path id="Vector_39" opacity="0.7" d="M648 255.26H523V324.26H648V255.26Z" fill="#65617D"/>
<path id="Vector_40" opacity="0.1" d="M605 267.26H567V275.26H605V267.26Z" fill="black"/>
<path id="Vector_41" opacity="0.1" d="M600.25 268.26H571.75V274.26H600.25V268.26Z" fill="black"/>
<path id="Vector_42" opacity="0.7" d="M648 183.26H523V252.26H648V183.26Z" fill="#65617D"/>
<path id="Vector_43" opacity="0.1" d="M605 195.26H567V203.26H605V195.26Z" fill="black"/>
<path id="Vector_44" opacity="0.1" d="M600.25 196.26H571.75V202.26H600.25V196.26Z" fill="black"/>
</g>
<path id="Vector_45" opacity="0.1" d="M878.29 0.11C878.29 0.11 794.1 -4.97001 804 54.03C804 54.03 802 64.46 811.48 69.19C811.48 69.19 811.63 64.82 820.12 66.31C823.143 66.811 826.213 66.9587 829.27 66.75C833.399 66.4648 837.324 64.8431 840.45 62.13C840.45 62.13 864.12 52.35 873.32 13.67C873.32 13.67 880.13 5.23 879.86 3.06L865.65 9.13C865.65 9.13 870.51 19.38 866.65 27.9C866.65 27.9 866.19 9.5 863.46 9.9C862.91 9.99 856.08 13.45 856.08 13.45C856.08 13.45 864.43 31.3 858.13 44.28C858.13 44.28 860.52 22.28 853.47 14.74L843.47 20.58C843.47 20.58 853.23 39.02 846.61 54.07C846.61 54.07 848.31 30.99 841.36 22L832.3 29.07C832.3 29.07 841.47 47.25 835.88 59.73C835.88 59.73 835.15 32.86 830.34 30.83C830.34 30.83 822.41 37.83 821.2 40.69C821.2 40.69 827.48 53.89 823.58 60.85C823.58 60.85 821.19 42.95 819.23 42.85C819.23 42.85 811.33 54.71 810.51 62.85C810.51 62.85 810.85 50.75 817.32 41.72C817.32 41.72 809.68 43.03 805.22 47.99C805.22 47.99 806.45 39.6 819.27 38.87C819.27 38.87 825.8 29.87 827.54 29.32C827.54 29.32 814.8 28.26 807.07 31.68C807.07 31.68 813.87 23.77 829.88 27.37L838.83 20.06C838.83 20.06 822.05 17.77 814.93 20.3C814.93 20.3 823.12 13.3 841.24 18.41L851 12.63C851 12.63 836.69 9.55 828.17 10.63C828.17 10.63 837.17 5.78 853.86 11.04L860.86 7.91C860.86 7.91 850.38 5.85 847.31 5.52C844.24 5.19 844.08 4.35 844.08 4.35C850.72 3.24285 857.536 4.00101 863.77 6.54C863.77 6.54 878.55 1.04 878.29 0.11Z" fill="#6C63FF"/>
<path id="Vector_46" opacity="0.1" d="M774.45 15.12C774.45 15.12 736.45 12.82 740.9 39.49C740.9 39.49 740.01 44.2 744.27 46.34C744.27 46.34 744.34 44.34 748.18 45.03C749.544 45.2595 750.93 45.3267 752.31 45.23C754.176 45.1031 755.95 44.3691 757.36 43.14C757.36 43.14 768.06 38.73 772.22 21.25C772.22 21.25 775.29 17.43 775.17 16.45L768.75 19.19C768.75 19.19 770.95 23.83 769.22 27.68C769.22 27.68 769.01 19.36 767.78 19.56C767.53 19.56 764.44 21.16 764.44 21.16C764.44 21.16 768.22 29.23 765.37 35.1C765.37 35.1 766.45 25.16 763.26 21.75L758.74 24.39C758.74 24.39 763.16 32.72 760.16 39.52C760.16 39.52 760.93 29.09 757.79 25.03L753.7 28.22C753.7 28.22 757.84 36.44 755.32 42.08C755.32 42.08 754.99 29.93 752.81 29.02C752.81 29.02 749.23 32.18 748.68 33.48C748.68 33.48 751.52 39.48 749.76 42.58C749.76 42.58 748.68 34.49 747.76 34.46C747.76 34.46 744.2 39.82 743.82 43.46C743.998 40.0629 745.06 36.7711 746.9 33.91C744.84 34.3002 742.939 35.2838 741.43 36.74C741.43 36.74 741.99 32.96 747.78 32.62C747.78 32.62 750.78 28.56 751.52 28.31C751.52 28.31 745.76 27.83 742.27 29.38C742.27 29.38 745.34 25.8 752.58 27.43L756.58 24.13C756.58 24.13 749 23.13 745.78 24.24C745.78 24.24 749.48 21.08 757.67 23.38L762.07 20.75C762.07 20.75 755.61 19.35 751.75 19.86C751.75 19.86 755.82 17.66 763.36 20.04L766.51 18.63C766.51 18.63 761.77 17.69 760.38 17.55C758.99 17.41 758.92 17.02 758.92 17.02C761.922 16.5206 765.004 16.8669 767.82 18.02C767.82 18.02 774.57 15.54 774.45 15.12Z" fill="#6C63FF"/>
<path id="Vector_47" d="M224.19 644.76C246.397 644.76 264.4 641.716 264.4 637.96C264.4 634.204 246.397 631.16 224.19 631.16C201.983 631.16 183.98 634.204 183.98 637.96C183.98 641.716 201.983 644.76 224.19 644.76Z" fill="#D24C4C"/>
<path id="Vector_48" d="M240.82 626.84C242.656 625.344 243.992 623.325 244.65 621.05C245.15 618.76 244.17 616.05 241.97 615.16C239.51 614.22 236.88 615.93 234.89 617.65C232.9 619.37 230.61 621.34 228.01 620.97C229.35 619.753 230.352 618.21 230.92 616.491C231.488 614.772 231.601 612.936 231.25 611.16C231.136 610.424 230.825 609.733 230.35 609.16C228.98 607.7 226.51 608.32 224.87 609.47C219.67 613.13 218.22 620.2 218.19 626.55C217.67 624.26 218.11 621.87 218.1 619.55C218.09 617.23 217.44 614.55 215.45 613.32C214.223 612.66 212.843 612.335 211.45 612.38C209.12 612.29 206.51 612.53 204.92 614.24C202.92 616.36 203.45 619.92 205.17 622.24C206.89 624.56 209.52 626.05 211.94 627.66C213.876 628.814 215.527 630.39 216.77 632.27C216.92 632.533 217.041 632.811 217.13 633.1H231.79C235.069 631.43 238.106 629.325 240.82 626.84Z" fill="#D24C4C"/>
<path id="Vector_49" d="M717.36 342.01C717.278 341.253 717.007 340.528 716.572 339.902C716.137 339.277 715.552 338.771 714.87 338.43C714.296 338.185 713.679 338.059 713.055 338.058C712.431 338.057 711.813 338.181 711.239 338.424C710.664 338.666 710.144 339.022 709.709 339.47C709.275 339.918 708.935 340.448 708.71 341.03L686.5 387.76L681.5 571.76H689.5L692.5 388.17L716.94 344.91C717.382 344.012 717.529 342.997 717.36 342.01Z" fill="#3F3D56"/>
<path id="Vector_50" opacity="0.1" d="M1075.56 613.32C1069.01 619.047 1061.95 624.171 1054.48 628.63C1054.36 628.794 1054.23 628.948 1054.09 629.09C1053.3 629.763 1052.35 630.236 1051.34 630.47C1026.56 644.281 998.629 651.453 970.26 651.29H420.44C357.44 644.81 319 636.22 319 626.79C319 619.48 342.08 612.67 381.82 606.97C385.94 606.37 390.237 605.79 394.71 605.23C397.463 604.883 400.28 604.55 403.16 604.23L408.05 603.66C411.677 603.247 415.4 602.843 419.22 602.45H419.53L423.53 602.05C426.91 601.7 430.36 601.37 433.88 601.05L436.44 600.82L442.97 600.24C447.21 599.86 451.543 599.497 455.97 599.15C459.643 598.863 463.377 598.577 467.17 598.29C505.63 595.44 549.97 593.29 598.22 591.9L612 591.43L616.64 591.33L626.44 591.11L630.37 591.03L634.5 590.95L637.44 590.9L651.24 590.68L658.33 590.58H659.78C676.547 590.38 693.627 590.277 711.02 590.27C745.4 590.27 778.74 590.68 810.51 591.46C828.75 591.9 846.433 592.46 863.56 593.14H863.72C913.1 595.08 957.3 597.94 993.88 601.49L994.55 601.56C1003.94 602.47 1012.83 603.44 1021.17 604.44C1029.02 605.38 1036.39 606.37 1043.23 607.38C1045.6 607.73 1047.9 608.09 1050.14 608.44L1050.71 608.54C1060.19 610.07 1068.51 611.63 1075.56 613.32Z" fill="#6C63FF"/>
<path id="Vector_51" d="M1054.48 628.63C1054.36 628.794 1054.23 628.948 1054.09 629.09C1053.3 629.763 1052.35 630.236 1051.34 630.47C1049.32 631.037 1047.24 631.373 1045.14 631.47H1044.51C1043.31 631.51 1042.11 631.47 1040.92 631.35C1040.05 631.224 1039.17 631.167 1038.29 631.18H1038.17C1036.89 631.36 1035.63 631.671 1034.42 632.11C1031.71 632.852 1028.93 633.248 1026.12 633.29H1025.12C1021.98 633.29 1018.8 633.18 1015.65 633.2C1015.14 633.2 1014.65 633.2 1014.12 633.2C1008.72 633.34 1003.35 634.2 997.95 634.29H996.22C990.93 634.16 985.52 633.03 981.31 629.83C980.461 629.269 979.772 628.497 979.31 627.59C978.951 626.633 978.831 625.604 978.96 624.59C979.06 622.78 979.41 620.81 980.77 619.59C981.625 618.934 982.605 618.461 983.65 618.2C985.48 617.61 987.32 617.04 989.15 616.47C990.98 615.9 993.07 615.29 995.04 614.71L995.42 614.59L996.52 614.26L997.23 614.02C998.091 613.744 998.916 613.368 999.69 612.9C1000.71 612.255 1001.57 611.39 1002.22 610.37C1002.33 610.19 1002.45 610 1002.55 609.81C1002.65 609.62 1002.55 609.5 1002.48 609.34C1002.31 608.09 1002.18 606.81 1001.96 605.59C999.146 604.937 996.579 603.486 994.57 601.41C992.844 599.699 991.39 597.732 990.26 595.58C987.77 590.9 986.49 585.67 984.63 580.7C981.78 573.14 977.63 566.16 973.45 559.24C969.63 552.86 965.79 546.46 961.45 540.43C958.56 536.43 955.45 532.62 952.59 528.61C944.5 517.421 938.695 504.745 935.51 491.31C935.023 488.732 934.33 486.198 933.44 483.73C931.72 479.53 928.57 476.11 926.13 472.27C923.507 468.131 921.71 463.523 920.84 458.7C920.34 455.96 919.5 453 916.77 452.7L916.48 453.27C910.82 464.27 905.01 475.47 896.48 484.45C895.116 485.77 893.868 487.205 892.75 488.74C891.854 490.228 891.052 491.771 890.35 493.36C889 496.213 887.208 498.835 885.04 501.13C884.395 501.782 883.692 502.375 882.94 502.9C881.941 503.626 880.83 504.184 879.65 504.55C879.185 504.692 878.711 504.799 878.23 504.87C878.23 504.99 878.28 505.1 878.29 505.22C878.3 505.34 878.35 505.48 878.37 505.61C879.841 513.611 879.211 521.856 876.54 529.54C876.47 529.78 876.39 530.01 876.3 530.25C875.887 531.37 875.437 532.47 874.95 533.55C873.73 536.2 872.28 538.74 871.14 541.43C870.95 541.89 870.76 542.35 870.59 542.81C866.59 553.52 867.59 565.48 867.07 576.99C867.024 579.507 866.726 582.013 866.18 584.47C865.5 587.24 864.41 590.1 863.81 592.96C863.263 595.104 863.218 597.346 863.68 599.51L863.44 599.6C862.37 600 861.28 600.36 860.19 600.7V600.85C860.58 603.09 860.96 605.33 861.35 607.56C861.68 609.48 862.07 611.56 863.41 612.92C863.775 613.22 864.11 613.555 864.41 613.92C865.2 615.16 864.5 616.8 864.65 618.27C864.87 620.35 866.79 622.12 866.49 624.19C866.355 624.809 866.071 625.385 865.664 625.869C865.256 626.354 864.736 626.731 864.15 626.97C863.658 627.193 863.141 627.357 862.61 627.46L862.28 627.53C861.68 627.64 861.08 627.7 860.48 627.76C853.03 628.5 845.48 629.24 838.1 627.98C836.64 627.73 835.19 627.4 833.71 627.28C831.84 627.197 829.967 627.274 828.11 627.51C814.419 628.806 800.651 629.074 786.92 628.31C783.35 628.11 779.25 627.53 777.36 624.48C775.79 621.95 776.36 618.68 777.15 615.79C777.376 614.727 777.786 613.712 778.36 612.79C778.425 612.69 778.498 612.596 778.58 612.51C780.42 610.22 783.88 610.08 786.86 610.17L796.6 610.46C797.559 610.538 798.524 610.464 799.46 610.24C801.04 609.78 802.24 608.52 803.72 607.81C805.58 606.92 807.92 606.81 809.26 605.29L809.43 605.07C809.667 604.748 809.887 604.414 810.09 604.07C810.09 604 810.18 603.93 810.23 603.86C810.267 603.798 810.307 603.738 810.35 603.68C811.58 602.06 813.73 601.52 815.48 600.49C815.745 600.335 815.996 600.158 816.23 599.96L816.43 599.78C814.546 598.436 812.903 596.782 811.57 594.89C811.056 594.337 810.676 593.673 810.46 592.95C810.338 592.407 810.379 591.839 810.58 591.32C810.623 591.192 810.677 591.069 810.74 590.95L810.79 590.85C811.47 589.51 812.87 588.3 813.64 586.93C813.669 586.887 813.693 586.839 813.71 586.79C814.77 584.79 814.98 581.69 813.41 580.08C814.21 566.91 817.83 554.08 818.63 540.87C818.95 535.64 818.82 530.39 819.06 525.14C819.3 519.89 819.86 514.8 820.45 509.65C821.77 497.88 824.97 486.35 824.52 474.53C824.482 473.428 824.528 472.325 824.66 471.23C824.655 471.15 824.655 471.07 824.66 470.99C824.98 468.568 825.736 466.224 826.89 464.07C828.34 461.636 829.982 459.322 831.8 457.15C837.95 449.15 845.34 441.15 847.53 431.31C848.66 426.23 851.16 421.58 853.65 417.01C855.12 414.29 856.65 411.5 859 409.5C860.273 408.619 861.455 407.614 862.53 406.5C864.17 404.38 864.23 401.45 865.2 398.93C865.7 397.62 866.47 396.42 866.85 395.07C866.85 394.93 866.92 394.8 866.95 394.66C867.172 393.298 867.289 391.92 867.3 390.54C867.3 390.14 867.36 389.75 867.41 389.36C867.994 385.407 869.143 381.557 870.82 377.93C871.03 377.47 871.23 377 871.43 376.54C866.816 373.848 862.746 370.318 859.43 366.13C858.306 364.775 857.33 363.303 856.52 361.74C854.46 357.65 853.99 352.99 853.02 348.51C850.7 337.83 845.39 327.77 844.65 316.85C844.43 313.52 844.65 310.08 843.49 306.93C843.171 306.078 842.793 305.25 842.36 304.45C842.18 304.11 842.01 303.77 841.83 303.45L841.63 303.07L841.12 302.07L840.3 302.71C819.842 318.729 798.363 333.4 776 346.63L774.08 347.77C773.08 348.252 772.21 348.965 771.54 349.85C771.46 349.98 771.39 350.11 771.32 350.24C770.86 351.19 770.74 352.24 770.32 353.24C769.42 355.53 767.11 356.99 764.75 357.67C760.48 358.768 755.952 358.184 752.1 356.04C751.61 355.79 751.1 355.53 750.66 355.24C749.49 355.888 748.257 356.414 746.98 356.81C742.98 357.97 738.79 357.92 734.65 357.91C730.51 357.9 726.28 357.91 722.36 359.27C719.74 360.16 717.2 361.63 714.48 361.77C714.167 361.79 713.853 361.79 713.54 361.77C711.989 361.592 710.481 361.149 709.08 360.46L708.26 360.09C707.835 359.889 707.421 359.665 707.02 359.42C706.582 359.15 706.176 358.831 705.81 358.47C705.281 357.939 704.895 357.281 704.69 356.56C704.555 356.039 704.555 355.491 704.69 354.97C704.729 354.736 704.849 354.523 705.03 354.37C705.208 354.264 705.413 354.212 705.62 354.22C706.767 354.208 707.912 354.305 709.04 354.51C709.703 354.601 710.371 354.638 711.04 354.62H711.4C711.99 354.557 712.56 354.373 713.076 354.081C713.592 353.788 714.043 353.393 714.4 352.92C714.51 352.774 714.597 352.612 714.66 352.44C714.781 352.159 714.842 351.856 714.84 351.55C714.846 351.473 714.846 351.397 714.84 351.32C714.42 351.13 714 350.94 713.6 350.71C713.39 350.6 713.19 350.48 712.99 350.36L712.87 350.28C712.511 350.036 712.176 349.758 711.87 349.45C711.676 349.257 711.504 349.043 711.36 348.81C711.094 348.448 710.895 348.042 710.77 347.61C709.946 347.438 709.093 347.462 708.28 347.68C707.19 347.98 706.09 348.62 705.01 348.84C704.465 348.977 703.892 348.953 703.36 348.77C701.8 348.21 701.25 346.31 700.92 344.68C700.86 344.37 700.79 344.05 700.74 343.73C700.625 343.115 700.625 342.485 700.74 341.87C701.224 340.473 702.146 339.27 703.37 338.44L706.65 335.69L706.89 335.49C706.89 335.22 706.78 334.95 706.74 334.68C706.625 334.062 706.625 333.428 706.74 332.81C707.223 331.415 708.146 330.215 709.37 329.39L716.63 323.28C717.99 322.14 719.47 320.94 721.24 320.82C723.87 320.64 725.97 322.82 727.94 324.57C730.42 326.77 733.43 328.57 736.74 328.79C738.316 328.862 739.892 328.645 741.39 328.15L742.24 327.87C742.06 327.5 741.88 327.13 741.71 326.76C741.42 326.15 741.13 325.53 740.85 324.91C745.11 324.64 748.98 322.3 752.21 319.5C755.44 316.7 758.21 313.39 761.47 310.64C764.99 307.64 769.03 305.41 772.6 302.52C780.9 295.79 786.41 285.9 795.29 279.97C798.37 277.9 801.93 276.25 804.03 273.17C804.68 272.17 805.17 271.17 805.84 270.17C807.97 267.17 811.62 265.79 814.63 263.71C817.64 261.63 820.26 258.58 822.71 255.65C824.45 253.56 826.2 251.47 827.86 249.32C829.39 246.47 830.68 243.49 832.28 240.68C833.638 238.306 835.222 236.069 837.01 234C837.42 233.2 837.84 232.4 838.29 231.62C838.74 230.84 839.07 230.31 839.49 229.62C839.78 229.17 840.08 228.74 840.39 228.3C839.48 226.69 838.61 225.3 838.2 224.69L838 224.42C837.118 223.48 836.176 222.599 835.18 221.78C834.135 221.622 833.099 221.401 832.08 221.12C825.908 219.429 820.464 215.755 816.586 210.664C812.708 205.574 810.612 199.349 810.62 192.95C810.615 192.92 810.615 192.89 810.62 192.86C810.624 188.277 811.713 183.76 813.8 179.68C814.22 178.86 814.67 178.07 815.16 177.3C814.703 177.156 814.258 176.975 813.83 176.76C813.1 176.4 812.464 175.877 811.97 175.23C811.562 174.654 811.299 173.989 811.2 173.29C811.031 171.642 811.278 169.978 811.92 168.45C812.193 167.715 812.503 166.994 812.85 166.29C812.877 166.249 812.901 166.205 812.92 166.16C817.39 157.16 826.92 151.63 836.44 151.24C846.71 150.83 856.71 155.65 864.81 162.55C867.227 164.533 869.39 166.807 871.25 169.32C875.48 175.2 877.39 182.72 877.95 190.17C878.16 192.474 878.12 194.794 877.83 197.09C877.724 197.908 877.557 198.717 877.33 199.51C877.2 199.98 877.03 200.45 876.85 200.92C876.67 201.39 876.56 201.6 876.4 201.92V201.97C876.25 202.29 876.08 202.59 875.91 202.89L875.82 203.02L875.69 203.23C875.77 203.42 875.86 203.62 875.95 203.81C876.04 204 876.12 204.18 876.22 204.36H876.34C878.34 204.52 880.19 204.8 882.23 204.96C883.19 205.006 884.142 205.153 885.07 205.4C887.07 206 888.58 207.46 890.26 208.64C894.42 211.58 899.54 212.95 903.63 215.99C909.63 220.47 912.63 227.87 916.27 234.5C921.07 243.38 928.89 250.94 932.34 260.44C933.9 264.753 935.467 269.06 937.04 273.36C940.11 281.79 943.18 290.26 947.35 298.21C953.15 309.27 961 319.21 965.65 330.83C966.112 331.995 966.978 332.953 968.09 333.53C974.426 342.477 980.06 351.902 984.94 361.72C987.51 366.91 989.94 372.3 990.69 378.05C991.275 383.169 990.851 388.354 989.44 393.31C988.643 396.254 987.664 399.146 986.51 401.97C986.06 402.959 985.725 403.995 985.51 405.06C985.51 405.17 985.51 405.28 985.51 405.39C985.31 407.31 986.04 409.21 986.24 411.13C986.407 412.676 986.233 414.239 985.73 415.71C985.65 415.94 985.56 416.17 985.47 416.4C984.85 417.569 984.325 418.786 983.9 420.04C983.864 420.191 983.837 420.345 983.82 420.5C983.49 422.67 984.35 424.86 984.82 427.03C986.58 434.87 986.26 443.03 985.82 451.03C985.59 455.03 988.82 458.24 991.52 461.19C996.52 466.72 1000.43 473.19 1004.2 479.63C1006.26 482.899 1007.99 486.363 1009.37 489.97C1010.8 494.09 1011.37 498.45 1012.16 502.72C1014.71 515.92 1023.04 527.58 1025.3 540.81C1026.35 546.868 1029.02 552.529 1033.03 557.19C1034.24 558.438 1035.35 559.775 1036.36 561.19C1037.06 562.317 1037.61 563.526 1038.01 564.79C1038.99 567.731 1039.46 570.82 1039.38 573.92C1039.22 575.404 1039.31 576.903 1039.63 578.36C1040.57 581.43 1043.93 583.12 1045.32 586.01C1046.71 588.9 1045.75 592.6 1046.32 595.88C1046.77 598.524 1048.2 600.903 1050.32 602.54C1049.52 603.24 1048.68 603.88 1047.82 604.54C1048.62 605.158 1049.31 605.893 1049.89 606.72C1050.28 607.274 1050.62 607.867 1050.89 608.49C1052.21 611.56 1052.25 615.21 1053.33 618.49C1053.79 619.85 1054.44 621.29 1054.04 622.67C1053.87 623.065 1053.75 623.483 1053.7 623.91C1053.7 624.81 1054.64 625.4 1055 626.22C1055.13 626.632 1055.15 627.071 1055.06 627.494C1054.97 627.917 1054.77 628.309 1054.48 628.63Z" fill="url(#paint1_linear)"/>
<path id="Vector_52" d="M842.84 238.63C848.96 236.98 854.41 233.53 859.75 230.12L878.36 218.27C873.31 217.87 868.95 214.27 866.36 209.91C863.77 205.55 862.7 200.48 861.82 195.5C853.82 198.62 846.89 203.91 840.43 209.5C837.87 211.71 832.43 215.05 831.64 218.5C830.85 221.95 835.89 224.75 837.84 227.06C838.51 227.83 844.82 238.08 842.84 238.63Z" fill="#FBBEBE"/>
<path id="Vector_53" opacity="0.1" d="M842.84 238.63C848.96 236.98 854.41 233.53 859.75 230.12L878.36 218.27C873.31 217.87 868.95 214.27 866.36 209.91C863.77 205.55 862.7 200.48 861.82 195.5C853.82 198.62 846.89 203.91 840.43 209.5C837.87 211.71 832.43 215.05 831.64 218.5C830.85 221.95 835.89 224.75 837.84 227.06C838.51 227.83 844.82 238.08 842.84 238.63Z" fill="black"/>
<path id="Vector_54" d="M741.15 336.51C737.87 338.19 734.38 339.91 730.71 339.67C727.41 339.46 724.4 337.67 721.92 335.48C719.92 333.74 717.86 331.57 715.23 331.75C713.47 331.87 711.99 333.06 710.63 334.19L703.38 340.26C702.16 341.08 701.237 342.273 700.75 343.66C700.607 344.601 700.665 345.563 700.92 346.48C701.25 348.1 701.8 349.99 703.36 350.54C704.92 351.09 706.62 349.91 708.27 349.46C709.278 349.202 710.337 349.221 711.335 349.515C712.333 349.809 713.233 350.367 713.94 351.13C714.529 351.709 714.885 352.485 714.94 353.31C714.94 355.12 712.94 356.31 711.1 356.4C709.26 356.49 707.5 355.89 705.68 356C705.57 355.986 705.459 355.994 705.352 356.024C705.245 356.054 705.146 356.105 705.059 356.174C704.972 356.243 704.9 356.329 704.847 356.426C704.794 356.523 704.761 356.63 704.75 356.74C704.637 357.372 704.685 358.022 704.889 358.63C705.094 359.238 705.448 359.785 705.92 360.22C706.87 361.087 707.976 361.766 709.18 362.22C710.579 362.912 712.089 363.352 713.64 363.52C716.71 363.72 719.53 362.02 722.44 361.03C726.36 359.71 730.58 359.67 734.72 359.68C738.86 359.69 743.06 359.75 747.03 358.59C751 357.43 754.77 354.86 756.32 351.03C756.503 350.673 756.563 350.265 756.49 349.87C756.335 349.449 756.038 349.095 755.65 348.87C750.07 344.74 747.81 339.72 741.53 336.75L741.15 336.51Z" fill="#FBBEBE"/>
<path id="Vector_55" opacity="0.1" d="M741.15 336.51C737.87 338.19 734.38 339.91 730.71 339.67C727.41 339.46 724.4 337.67 721.92 335.48C719.92 333.74 717.86 331.57 715.23 331.75C713.47 331.87 711.99 333.06 710.63 334.19L703.38 340.26C702.16 341.08 701.237 342.273 700.75 343.66C700.607 344.601 700.665 345.563 700.92 346.48C701.25 348.1 701.8 349.99 703.36 350.54C704.92 351.09 706.62 349.91 708.27 349.46C709.278 349.202 710.337 349.221 711.335 349.515C712.333 349.809 713.233 350.367 713.94 351.13C714.529 351.709 714.885 352.485 714.94 353.31C714.94 355.12 712.94 356.31 711.1 356.4C709.26 356.49 707.5 355.89 705.68 356C705.57 355.986 705.459 355.994 705.352 356.024C705.245 356.054 705.146 356.105 705.059 356.174C704.972 356.243 704.9 356.329 704.847 356.426C704.794 356.523 704.761 356.63 704.75 356.74C704.637 357.372 704.685 358.022 704.889 358.63C705.094 359.238 705.448 359.785 705.92 360.22C706.87 361.087 707.976 361.766 709.18 362.22C710.579 362.912 712.089 363.352 713.64 363.52C716.71 363.72 719.53 362.02 722.44 361.03C726.36 359.71 730.58 359.67 734.72 359.68C738.86 359.69 743.06 359.75 747.03 358.59C751 357.43 754.77 354.86 756.32 351.03C756.503 350.673 756.563 350.265 756.49 349.87C756.335 349.449 756.038 349.095 755.65 348.87C750.07 344.74 747.81 339.72 741.53 336.75L741.15 336.51Z" fill="black"/>
<path id="Vector_56" d="M858.25 229.86C856.698 228.859 854.938 228.227 853.103 228.014C851.269 227.8 849.41 228.011 847.67 228.63C844.186 229.885 841.06 231.968 838.56 234.7C836.064 237.245 833.903 240.098 832.13 243.19C830.43 246.19 829.13 249.33 827.43 252.32C824.43 257.67 820.51 262.39 816.57 267.07C814.12 269.98 811.64 272.93 808.5 275.07C805.36 277.21 801.85 278.52 799.72 281.49C799.05 282.43 798.57 283.49 797.91 284.44C795.82 287.5 792.27 289.14 789.18 291.19C780.32 297.09 774.81 306.91 766.53 313.6C762.96 316.48 758.93 318.74 755.42 321.68C752.15 324.41 749.42 327.68 746.16 330.48C742.9 333.28 739.07 335.59 734.82 335.85C737.66 342.18 741.05 348.39 745.92 353.32C750.79 358.25 758.09 361.4 764.74 359.47C767.1 358.79 769.41 357.35 770.31 355.07C770.593 353.898 770.988 352.756 771.49 351.66C772.158 350.78 773.025 350.071 774.02 349.59C800.715 334.007 826.161 316.378 850.13 296.86C856.56 291.62 862.94 286.93 869.54 281.86C871.906 280.182 874.095 278.265 876.07 276.14C878.823 272.853 880.542 268.826 881.012 264.564C881.481 260.303 880.681 255.998 878.71 252.19C876.94 249.277 874.912 246.529 872.65 243.98C868.535 238.622 863.687 233.869 858.25 229.86Z" fill="#6C63FF"/>
<path id="Vector_57" opacity="0.1" d="M858.25 229.86C856.698 228.859 854.938 228.227 853.103 228.014C851.269 227.8 849.41 228.011 847.67 228.63C844.186 229.885 841.06 231.968 838.56 234.7C836.064 237.245 833.903 240.098 832.13 243.19C830.43 246.19 829.13 249.33 827.43 252.32C824.43 257.67 820.51 262.39 816.57 267.07C814.12 269.98 811.64 272.93 808.5 275.07C805.36 277.21 801.85 278.52 799.72 281.49C799.05 282.43 798.57 283.49 797.91 284.44C795.82 287.5 792.27 289.14 789.18 291.19C780.32 297.09 774.81 306.91 766.53 313.6C762.96 316.48 758.93 318.74 755.42 321.68C752.15 324.41 749.42 327.68 746.16 330.48C742.9 333.28 739.07 335.59 734.82 335.85C737.66 342.18 741.05 348.39 745.92 353.32C750.79 358.25 758.09 361.4 764.74 359.47C767.1 358.79 769.41 357.35 770.31 355.07C770.593 353.898 770.988 352.756 771.49 351.66C772.158 350.78 773.025 350.071 774.02 349.59C800.715 334.007 826.161 316.378 850.13 296.86C856.56 291.62 862.94 286.93 869.54 281.86C871.906 280.182 874.095 278.265 876.07 276.14C878.823 272.853 880.542 268.826 881.012 264.564C881.481 260.303 880.681 255.998 878.71 252.19C876.94 249.277 874.912 246.529 872.65 243.98C868.535 238.622 863.687 233.869 858.25 229.86Z" fill="black"/>
<path id="Vector_58" d="M815.28 600.83C813.53 601.83 811.38 602.39 810.15 604.01C809.75 604.53 809.48 605.14 809.05 605.64C807.72 607.2 805.36 607.27 803.51 608.16C802.03 608.86 800.83 610.16 799.26 610.57C798.321 610.793 797.352 610.867 796.39 610.79L786.67 610.5C783.59 610.41 779.98 610.57 778.19 613.08C777.608 614 777.195 615.015 776.97 616.08C776.22 618.95 775.61 622.2 777.18 624.72C779.06 627.72 783.18 628.33 786.73 628.53C800.444 629.289 814.196 629.021 827.87 627.73C829.72 627.494 831.587 627.417 833.45 627.5C834.93 627.62 836.38 627.95 837.84 628.2C845.21 629.45 852.75 628.72 860.19 627.98C861.447 627.919 862.687 627.656 863.86 627.2C864.444 626.962 864.961 626.585 865.367 626.103C865.773 625.62 866.055 625.046 866.19 624.43C866.5 622.37 864.57 620.62 864.36 618.55C864.21 617.09 864.91 615.46 864.11 614.22C863.811 613.854 863.476 613.52 863.11 613.22C861.77 611.83 861.38 609.8 861.05 607.9L859.3 597.63C859.251 596.906 858.954 596.221 858.46 595.69C858.092 595.425 857.668 595.25 857.22 595.18C849.6 593.46 841.79 595.03 834.22 595.99C830.324 596.561 826.383 596.759 822.45 596.58C820.75 596.47 820.09 596.27 818.82 597.38C817.55 598.49 816.87 599.9 815.28 600.83Z" fill="#3F3D56"/>
<path id="Vector_59" d="M999.29 613.19C997.953 613.938 996.519 614.499 995.03 614.86C991.103 616.007 987.183 617.203 983.27 618.45C982.229 618.708 981.252 619.178 980.4 619.83C979.04 621.03 978.69 622.99 978.59 624.83C978.46 625.844 978.581 626.873 978.94 627.83C979.409 628.727 980.097 629.49 980.94 630.05C985.42 633.44 991.27 634.49 996.89 634.49C1002.51 634.49 1008.09 633.54 1013.71 633.39C1020.5 633.21 1027.47 634.17 1034 632.27C1035.25 631.809 1036.54 631.494 1037.86 631.33C1038.74 631.317 1039.61 631.373 1040.48 631.5C1043.98 631.846 1047.52 631.524 1050.9 630.55C1051.92 630.325 1052.87 629.854 1053.66 629.18C1054.05 628.839 1054.33 628.388 1054.47 627.885C1054.6 627.381 1054.58 626.85 1054.4 626.36C1054.04 625.55 1053.12 624.96 1053.11 624.07C1053.16 623.643 1053.27 623.225 1053.44 622.83C1053.85 621.46 1053.19 620.03 1052.73 618.68C1051.44 614.82 1051.65 610.38 1049.34 607.03C1047.03 603.68 1042.79 602.3 1038.76 601.77C1035.48 601.307 1032.15 601.402 1028.91 602.05C1025.26 602.83 1021.85 604.46 1018.27 605.5C1014.12 606.695 1009.77 607.105 1005.47 606.71C1002.61 606.47 1003.59 606.92 1002.62 609.32C1001.93 610.92 1000.77 612.271 999.29 613.19Z" fill="#3F3D56"/>
<path id="Vector_60" d="M839.5 224.76C855.516 224.76 868.5 211.776 868.5 195.76C868.5 179.744 855.516 166.76 839.5 166.76C823.484 166.76 810.5 179.744 810.5 195.76C810.5 211.776 823.484 224.76 839.5 224.76Z" fill="#FBBEBE"/>
<path id="Vector_61" d="M1049.74 602.82C1040.74 610.55 1028.59 613.93 1016.74 614.05C1011.74 614.1 1006.55 613.56 1002.29 610.97C1001.99 609.33 1001.87 607.56 1001.57 605.92C996.4 604.84 992.39 600.63 989.89 595.97C987.39 591.31 986.12 586.13 984.26 581.19C981.42 573.67 977.26 566.74 973.1 559.86C969.28 553.52 965.45 547.16 961.1 541.17C958.22 537.17 955.1 533.41 952.25 529.42C944.176 518.313 938.381 505.718 935.2 492.36C934.714 489.798 934.021 487.28 933.13 484.83C931.41 480.65 928.26 477.25 925.83 473.44C923.209 469.329 921.413 464.747 920.54 459.95C920.05 457.23 919.21 454.29 916.48 454.01C910.74 465.16 904.89 476.49 896.21 485.56C894.846 486.87 893.598 488.295 892.48 489.82C891.584 491.301 890.782 492.838 890.08 494.42C888.734 497.258 886.945 499.864 884.78 502.14C882.966 504.081 880.574 505.385 877.96 505.86C879.888 515.469 878.74 525.441 874.68 534.36C873.47 537 872.02 539.52 870.88 542.19C866.22 553.19 867.3 565.6 866.81 577.53C866.767 580.03 866.473 582.519 865.93 584.96C864.72 589.84 862.22 595.03 863.43 599.91C850.89 604.7 836.96 604.4 823.68 602.38C821.083 602.142 818.561 601.377 816.27 600.13C814.387 598.797 812.743 597.153 811.41 595.27C810.896 594.721 810.516 594.06 810.3 593.34C809.78 591.06 812.3 589.34 813.47 587.34C814.64 585.34 814.85 582.17 813.24 580.53C814.04 567.44 817.66 554.66 818.46 541.53C818.78 536.33 818.65 531.11 818.89 525.9C819.13 520.69 819.69 515.62 820.27 510.5C821.59 498.81 824.79 487.35 824.34 475.6C824.203 471.984 825.035 468.397 826.75 465.21C828.196 462.789 829.834 460.488 831.65 458.33C837.79 450.4 845.17 442.45 847.36 432.66C848.49 427.61 850.99 422.99 853.47 418.45C854.94 415.74 856.47 412.97 858.81 410.98C860.083 410.099 861.266 409.094 862.34 407.98C863.98 405.87 864.04 402.98 865.01 400.46C865.51 399.16 866.28 397.96 866.65 396.62C866.955 395.14 867.106 393.632 867.1 392.12C867.42 387.28 869.28 382.6 871.24 378.17C866.631 375.501 862.561 371.994 859.24 367.83C858.125 366.478 857.153 365.013 856.34 363.46C854.28 359.4 853.81 354.77 852.84 350.32C850.53 339.7 845.22 329.71 844.48 318.86C844.26 315.55 844.48 312.13 843.33 309C842.799 307.675 842.178 306.389 841.47 305.15C840.773 303.933 840.242 302.628 839.89 301.27C839.25 298.32 840.13 295.27 839.89 292.27C839.65 289.62 838.52 287.14 837.96 284.55C837.388 281.18 837.291 277.747 837.67 274.35C837.92 270.35 838.79 266.22 838.45 262.27C837.899 255.734 838.732 249.155 840.894 242.962C843.056 236.77 846.5 231.102 851 226.33L851.23 226.1C853.14 224.1 855.23 222.33 856.95 220.21C859.29 217.37 860.95 214.03 863.42 211.27C864.5 210.04 865.72 208.94 866.79 207.7C867.771 206.399 868.858 205.182 870.04 204.06C870.638 203.505 871.362 203.105 872.15 202.894C872.938 202.683 873.765 202.668 874.56 202.85C874.76 204.341 875.228 205.784 875.94 207.11C878.02 207.27 879.87 207.56 881.94 207.72C882.9 207.766 883.852 207.913 884.78 208.16C886.73 208.75 888.29 210.16 889.96 211.37C894.12 214.3 899.23 215.66 903.32 218.68C909.32 223.13 912.32 230.48 915.94 237.07C920.73 245.9 928.54 253.41 931.94 262.85L936.63 275.69C939.7 284.07 942.77 292.48 946.93 300.38C952.72 311.38 960.56 321.29 965.21 332.8C965.675 333.954 966.536 334.905 967.64 335.48C973.972 344.36 979.599 353.722 984.47 363.48C987.04 368.64 989.47 374 990.21 379.71C991.3 387.78 989.1 395.94 986.04 403.48C985.545 404.56 985.209 405.705 985.04 406.88C984.84 408.79 985.57 410.67 985.77 412.58C985.963 414.364 985.698 416.167 985 417.82C984.378 418.982 983.853 420.192 983.43 421.44C982.89 423.74 983.85 426.08 984.37 428.38C986.13 436.17 985.81 444.24 985.37 452.22C985.14 456.22 988.37 459.39 991.06 462.32C996.06 467.81 999.96 474.23 1003.73 480.64C1005.78 483.891 1007.51 487.334 1008.89 490.92C1010.32 495.01 1010.89 499.34 1011.68 503.59C1014.22 516.7 1022.54 528.29 1024.8 541.44C1025.85 547.464 1028.52 553.089 1032.52 557.71C1033.73 558.96 1034.84 560.297 1035.85 561.71C1036.54 562.832 1037.09 564.034 1037.49 565.29C1038.47 568.21 1038.94 571.28 1038.86 574.36C1038.7 575.834 1038.79 577.324 1039.11 578.77C1040.05 581.82 1043.41 583.5 1044.79 586.37C1046.17 589.24 1045.22 592.92 1045.79 596.18C1046.22 598.813 1047.63 601.185 1049.74 602.82Z" fill="#6C63FF"/>
<path id="Vector_62" d="M747.15 327.51C743.87 329.19 740.38 330.91 736.71 330.67C733.41 330.46 730.4 328.67 727.92 326.48C725.92 324.74 723.86 322.57 721.23 322.75C719.47 322.87 717.99 324.06 716.63 325.19L709.38 331.26C708.16 332.08 707.237 333.273 706.75 334.66C706.607 335.601 706.665 336.563 706.92 337.48C707.25 339.1 707.8 340.99 709.36 341.54C710.92 342.09 712.62 340.91 714.27 340.46C715.278 340.202 716.337 340.221 717.335 340.515C718.333 340.809 719.233 341.367 719.94 342.13C720.529 342.709 720.885 343.485 720.94 344.31C720.94 346.12 718.94 347.31 717.1 347.4C715.26 347.49 713.5 346.89 711.68 347C711.57 346.986 711.459 346.994 711.352 347.024C711.245 347.054 711.146 347.105 711.059 347.174C710.972 347.243 710.9 347.329 710.847 347.426C710.794 347.523 710.761 347.63 710.75 347.74C710.637 348.372 710.685 349.022 710.889 349.63C711.094 350.238 711.448 350.785 711.92 351.22C712.87 352.087 713.976 352.766 715.18 353.22C716.579 353.912 718.089 354.352 719.64 354.52C722.71 354.72 725.53 353.02 728.44 352.03C732.36 350.71 736.58 350.67 740.72 350.68C744.86 350.69 749.06 350.75 753.03 349.59C757 348.43 760.77 345.86 762.32 342.03C762.503 341.673 762.563 341.265 762.49 340.87C762.335 340.449 762.038 340.095 761.65 339.87C756.07 335.74 753.81 330.72 747.53 327.75L747.15 327.51Z" fill="#FBBEBE"/>
<path id="Vector_63" d="M825.39 177.94C823.66 178.22 822.19 179.39 820.55 180.04C819.449 180.468 818.27 180.657 817.091 180.595C815.912 180.533 814.76 180.221 813.71 179.68C812.978 179.324 812.338 178.804 811.84 178.16C810.5 176.3 810.97 173.6 811.79 171.42C815.67 161.11 826.03 154.73 836.29 154.32C846.55 153.91 856.53 158.7 864.62 165.55C867.026 167.527 869.185 169.786 871.05 172.28C875.27 178.13 877.18 185.6 877.74 193C878.075 196.105 877.869 199.245 877.13 202.28C876.775 203.755 876.126 205.143 875.222 206.361C874.319 207.579 873.178 208.603 871.87 209.37C869.01 210.83 865.58 210.37 862.69 208.97C859.8 207.57 857.32 205.36 854.84 203.25C853.716 202.167 852.387 201.32 850.93 200.76C850.204 200.501 849.418 200.458 848.667 200.635C847.917 200.813 847.234 201.203 846.7 201.76C845.36 203.37 845.7 206.01 844.48 207.76C843.26 209.51 840.72 209.76 838.58 209.76C836.44 209.76 834.27 209.58 832.99 207.88C831.82 206.34 831.99 204.09 832.43 202.15C832.87 200.21 833.62 198.29 833.43 196.3C833.02 192.3 829.52 189.84 828.43 186.16C827.72 183.75 829.28 182.73 829.12 180.55C829 178.63 826.94 177.69 825.39 177.94Z" fill="#563D3D"/>
<path id="Vector_64" opacity="0.1" d="M916.5 453.76V454.01C910.76 465.16 904.91 476.49 896.23 485.56C894.866 486.87 893.618 488.295 892.5 489.82C891.604 491.301 890.802 492.838 890.1 494.42C888.754 497.258 886.965 499.864 884.8 502.14L877.56 505.76L900.56 385.76L916.5 453.76Z" fill="black"/>
<path id="Vector_65" opacity="0.1" d="M883.07 272.14C881.095 274.265 878.906 276.182 876.54 277.86C869.94 282.86 863.54 287.58 857.13 292.86C851.963 297.067 846.723 301.187 841.41 305.22C840.713 304.003 840.182 302.698 839.83 301.34C839.19 298.39 840.07 295.34 839.83 292.34C839.59 289.69 838.46 287.21 837.9 284.62C837.328 281.25 837.231 277.817 837.61 274.42C837.86 270.42 838.73 266.29 838.39 262.34C837.837 255.788 838.674 249.193 840.847 242.988C843.02 236.782 846.48 231.105 851 226.33L851.23 226.1C852.306 225.474 853.446 224.965 854.63 224.58C856.374 223.969 858.235 223.766 860.069 223.988C861.903 224.21 863.662 224.85 865.21 225.86C870.647 229.869 875.495 234.622 879.61 239.98C881.872 242.529 883.9 245.277 885.67 248.19C887.646 251.994 888.453 256.297 887.991 260.558C887.528 264.819 885.816 268.849 883.07 272.14Z" fill="black"/>
<path id="Vector_66" d="M864.25 220.86C862.698 219.859 860.938 219.227 859.103 219.014C857.269 218.8 855.41 219.011 853.67 219.63C850.186 220.885 847.06 222.968 844.56 225.7C842.064 228.245 839.903 231.098 838.13 234.19C836.43 237.19 835.13 240.33 833.43 243.32C830.43 248.67 826.51 253.39 822.57 258.07C820.12 260.98 817.64 263.93 814.5 266.07C811.36 268.21 807.85 269.52 805.72 272.49C805.05 273.43 804.57 274.49 803.91 275.44C801.82 278.5 798.27 280.14 795.18 282.19C786.32 288.09 780.81 297.91 772.53 304.6C768.96 307.48 764.93 309.74 761.42 312.68C758.15 315.41 755.42 318.68 752.16 321.48C748.9 324.28 745.07 326.59 740.82 326.85C743.66 333.18 747.05 339.39 751.92 344.32C756.79 349.25 764.09 352.4 770.74 350.47C773.1 349.79 775.41 348.35 776.31 346.07C776.593 344.898 776.988 343.756 777.49 342.66C778.158 341.78 779.025 341.071 780.02 340.59C806.715 325.007 832.161 307.378 856.13 287.86C862.56 282.62 868.94 277.93 875.54 272.86C877.906 271.182 880.095 269.265 882.07 267.14C884.823 263.853 886.542 259.826 887.012 255.564C887.481 251.303 886.681 246.998 884.71 243.19C882.94 240.277 880.912 237.529 878.65 234.98C874.535 229.622 869.687 224.869 864.25 220.86Z" fill="#6C63FF"/>
<g id="Group_3" opacity="0.1">
<path id="Vector_67" opacity="0.1" d="M840.58 205.73C838.58 205.73 836.27 205.55 834.99 203.85C833.83 202.31 833.99 200.06 834.43 198.12C834.87 196.18 835.62 194.26 835.43 192.27C835.02 188.27 831.52 185.81 830.43 182.13C829.72 179.72 831.28 178.7 831.12 176.52C830.98 174.63 828.93 173.69 827.38 173.94C825.65 174.22 824.18 175.39 822.54 176.04C821.439 176.468 820.261 176.657 819.081 176.595C817.902 176.533 816.75 176.221 815.7 175.68C814.968 175.324 814.328 174.804 813.83 174.16C812.49 172.3 812.96 169.6 813.78 167.42C813.78 167.34 813.85 167.27 813.88 167.19C813.044 168.528 812.34 169.945 811.78 171.42C810.96 173.6 810.49 176.3 811.83 178.16C812.328 178.804 812.968 179.324 813.7 179.68C814.75 180.221 815.902 180.533 817.081 180.595C818.261 180.657 819.439 180.468 820.54 180.04C822.18 179.39 823.65 178.22 825.38 177.94C826.93 177.69 828.98 178.63 829.12 180.52C829.28 182.7 827.72 183.72 828.43 186.13C829.5 189.81 833 192.31 833.43 196.27C833.63 198.27 832.9 200.19 832.43 202.12C831.96 204.05 831.83 206.31 832.99 207.85C834.27 209.55 836.56 209.71 838.58 209.73C840.6 209.75 843.2 209.61 844.48 207.73C845.032 206.786 845.396 205.743 845.55 204.66C844.19 205.63 842.29 205.75 840.58 205.73Z" fill="black"/>
<path id="Vector_68" opacity="0.1" d="M873.87 205.37C871.01 206.83 867.58 206.37 864.69 204.97C861.8 203.57 859.32 201.36 856.84 199.25C855.716 198.167 854.387 197.32 852.93 196.76C852.204 196.501 851.418 196.458 850.667 196.635C849.917 196.813 849.234 197.203 848.7 197.76C848.021 198.764 847.592 199.916 847.45 201.12C847.97 200.814 848.55 200.622 849.15 200.558C849.75 200.494 850.357 200.56 850.93 200.75C852.387 201.31 853.716 202.157 854.84 203.24C857.32 205.35 859.84 207.57 862.69 208.96C865.54 210.35 869.01 210.82 871.87 209.36C874.399 207.88 876.243 205.461 877 202.63C876.178 203.769 875.108 204.706 873.87 205.37Z" fill="black"/>
</g>
<path id="Vector_69" d="M625 635.26C641.569 635.26 655 621.829 655 605.26C655 588.691 641.569 575.26 625 575.26C608.431 575.26 595 588.691 595 605.26C595 621.829 608.431 635.26 625 635.26Z" fill="#3F3D56"/>
<path id="Vector_70" opacity="0.1" d="M625 635.26C641.569 635.26 655 621.829 655 605.26C655 588.691 641.569 575.26 625 575.26C608.431 575.26 595 588.691 595 605.26C595 621.829 608.431 635.26 625 635.26Z" fill="black"/>
<path id="Vector_71" d="M625 624.26C635.493 624.26 644 615.753 644 605.26C644 594.767 635.493 586.26 625 586.26C614.507 586.26 606 594.767 606 605.26C606 615.753 614.507 624.26 625 624.26Z" fill="#65617D"/>
<path id="Vector_72" opacity="0.1" d="M625 624.26C635.493 624.26 644 615.753 644 605.26C644 594.767 635.493 586.26 625 586.26C614.507 586.26 606 594.767 606 605.26C606 615.753 614.507 624.26 625 624.26Z" fill="black"/>
<path id="Vector_73" d="M602 558.26L621.68 602.76C621.973 603.427 622.451 603.996 623.057 604.401C623.663 604.805 624.372 605.028 625.1 605.043C625.829 605.058 626.546 604.864 627.168 604.484C627.79 604.104 628.29 603.555 628.61 602.9L652 555.26L602 558.26Z" fill="#3F3D56"/>
<path id="Vector_74" opacity="0.1" d="M602 558.26L621.68 602.76C621.973 603.427 622.451 603.996 623.057 604.401C623.663 604.805 624.372 605.028 625.1 605.043C625.829 605.058 626.546 604.864 627.168 604.484C627.79 604.104 628.29 603.555 628.61 602.9L652 555.26L602 558.26Z" fill="black"/>
<path id="Vector_75" d="M438 635.26C454.569 635.26 468 621.829 468 605.26C468 588.691 454.569 575.26 438 575.26C421.431 575.26 408 588.691 408 605.26C408 621.829 421.431 635.26 438 635.26Z" fill="#3F3D56"/>
<path id="Vector_76" opacity="0.1" d="M438 635.26C454.569 635.26 468 621.829 468 605.26C468 588.691 454.569 575.26 438 575.26C421.431 575.26 408 588.691 408 605.26C408 621.829 421.431 635.26 438 635.26Z" fill="black"/>
<path id="Vector_77" d="M438 624.26C448.493 624.26 457 615.753 457 605.26C457 594.767 448.493 586.26 438 586.26C427.507 586.26 419 594.767 419 605.26C419 615.753 427.507 624.26 438 624.26Z" fill="#65617D"/>
<path id="Vector_78" opacity="0.1" d="M438 624.26C448.493 624.26 457 615.753 457 605.26C457 594.767 448.493 586.26 438 586.26C427.507 586.26 419 594.767 419 605.26C419 615.753 427.507 624.26 438 624.26Z" fill="black"/>
<path id="Vector_79" d="M415 558.26L434.68 602.76C434.973 603.427 435.451 603.996 436.057 604.401C436.663 604.805 437.372 605.028 438.1 605.043C438.829 605.058 439.546 604.864 440.168 604.484C440.79 604.104 441.29 603.555 441.61 602.9L465 555.26L415 558.26Z" fill="#3F3D56"/>
<path id="Vector_80" opacity="0.1" d="M415 558.26L434.68 602.76C434.973 603.427 435.451 603.996 436.057 604.401C436.663 604.805 437.372 605.028 438.1 605.043C438.829 605.058 439.546 604.864 440.168 604.484C440.79 604.104 441.29 603.555 441.61 602.9L465 555.26L415 558.26Z" fill="black"/>
<path id="Vector_81" d="M722.36 344.01C722.278 343.253 722.007 342.528 721.572 341.902C721.137 341.277 720.552 340.771 719.87 340.43C719.296 340.185 718.679 340.059 718.055 340.058C717.431 340.057 716.813 340.181 716.239 340.424C715.664 340.666 715.144 341.022 714.709 341.47C714.275 341.918 713.935 342.448 713.71 343.03L696.5 385.76L691.5 577.76H699.5L702.5 386.17L721.94 346.91C722.382 346.012 722.529 344.997 722.36 344.01Z" fill="#3F3D56"/>
<path id="Vector_82" d="M368.5 562.76L395.5 545.76L687 543.26L694.5 562.76H368.5Z" fill="#C23636"/>
<path id="Vector_83" d="M368.5 580.76V562.76L699.78 559.56L699.46 571.76H374.5V580.76H368.5Z" fill="#3F3D56"/>
<path id="Vector_84" d="M410.5 645.76C427.069 645.76 440.5 632.329 440.5 615.76C440.5 599.191 427.069 585.76 410.5 585.76C393.931 585.76 380.5 599.191 380.5 615.76C380.5 632.329 393.931 645.76 410.5 645.76Z" fill="#3F3D56"/>
<path id="Vector_85" d="M410.5 634.76C420.993 634.76 429.5 626.253 429.5 615.76C429.5 605.267 420.993 596.76 410.5 596.76C400.007 596.76 391.5 605.267 391.5 615.76C391.5 626.253 400.007 634.76 410.5 634.76Z" fill="#65617D"/>
<path id="Vector_86" d="M387.5 568.76L407.18 613.26C407.473 613.927 407.951 614.496 408.557 614.901C409.163 615.305 409.872 615.528 410.6 615.543C411.329 615.558 412.046 615.364 412.668 614.984C413.29 614.604 413.79 614.055 414.11 613.4L437.5 565.76L387.5 568.76Z" fill="#3F3D56"/>
<path id="Vector_87" d="M669.418 600.652C661.074 586.338 642.706 581.498 628.392 589.842C614.078 598.186 609.238 616.554 617.582 630.868C625.926 645.182 644.294 650.022 658.608 641.678C672.922 633.334 677.762 614.966 669.418 600.652Z" fill="#3F3D56"/>
<path id="Vector_88" d="M643.5 634.76C653.993 634.76 662.5 626.253 662.5 615.76C662.5 605.267 653.993 596.76 643.5 596.76C633.007 596.76 624.5 605.267 624.5 615.76C624.5 626.253 633.007 634.76 643.5 634.76Z" fill="#65617D"/>
<path id="Vector_89" d="M620.5 568.76L640.18 613.26C640.473 613.927 640.951 614.496 641.557 614.901C642.163 615.305 642.872 615.528 643.6 615.543C644.329 615.558 645.046 615.364 645.668 614.984C646.29 614.604 646.79 614.055 647.11 613.4L670.5 565.76L620.5 568.76Z" fill="#3F3D56"/>
<path id="Vector_90" d="M531 484.26H406V553.26H531V484.26Z" fill="#E7B24D"/>
<path id="Vector_91" opacity="0.1" d="M488 496.26H450V504.26H488V496.26Z" fill="black"/>
<path id="Vector_92" opacity="0.1" d="M483.25 497.26H454.75V503.26H483.25V497.26Z" fill="black"/>
<path id="Vector_93" d="M658 484.26H533V553.26H658V484.26Z" fill="#E7B24D"/>
<path id="Vector_94" opacity="0.1" d="M615 496.26H577V504.26H615V496.26Z" fill="black"/>
<path id="Vector_95" opacity="0.1" d="M610.25 497.26H581.75V503.26H610.25V497.26Z" fill="black"/>
<path id="Vector_96" d="M531 413.26H406V482.26H531V413.26Z" fill="#E7B24D"/>
<path id="Vector_97" opacity="0.1" d="M488 425.26H450V433.26H488V425.26Z" fill="black"/>
<path id="Vector_98" opacity="0.1" d="M483.25 426.26H454.75V432.26H483.25V426.26Z" fill="black"/>
<path id="Vector_99" d="M658 413.26H533V482.26H658V413.26Z" fill="#E7B24D"/>
<path id="Vector_100" opacity="0.1" d="M615 425.26H577V433.26H615V425.26Z" fill="black"/>
<path id="Vector_101" opacity="0.1" d="M610.25 426.26H581.75V432.26H610.25V426.26Z" fill="black"/>
<path id="Vector_102" d="M531 341.26H406V410.26H531V341.26Z" fill="#E7B24D"/>
<path id="Vector_103" opacity="0.1" d="M488 353.26H450V361.26H488V353.26Z" fill="black"/>
<path id="Vector_104" opacity="0.1" d="M483.25 354.26H454.75V360.26H483.25V354.26Z" fill="black"/>
<path id="Vector_105" d="M658 341.26H533V410.26H658V341.26Z" fill="#E7B24D"/>
<path id="Vector_106" opacity="0.1" d="M615 353.26H577V361.26H615V353.26Z" fill="black"/>
<path id="Vector_107" opacity="0.1" d="M610.25 354.26H581.75V360.26H610.25V354.26Z" fill="black"/>
<path id="Vector_108" d="M658 269.26H533V338.26H658V269.26Z" fill="#E7B24D"/>
<path id="Vector_109" opacity="0.1" d="M615 281.26H577V289.26H615V281.26Z" fill="black"/>
<path id="Vector_110" opacity="0.1" d="M610.25 282.26H581.75V288.26H610.25V282.26Z" fill="black"/>
</g>
<defs>
<linearGradient id="paint0_linear" x1="1000.5" y1="124.5" x2="77" y2="631" gradientUnits="userSpaceOnUse">
<stop offset="0.848958" stop-color="#FF6464" stop-opacity="0.56"/>
<stop offset="0.993123" stop-color="#FF6464" stop-opacity="0.51"/>
<stop offset="1" stop-color="white" stop-opacity="0"/>
</linearGradient>
<linearGradient id="paint1_linear" x1="877.83" y1="634.4" x2="877.83" y2="151.26" gradientUnits="userSpaceOnUse">
<stop stop-color="#808080" stop-opacity="0.25"/>
<stop offset="0.54" stop-color="#808080" stop-opacity="0.12"/>
<stop offset="1" stop-color="#808080" stop-opacity="0.1"/>
</linearGradient>
<clipPath id="clip0">
<rect width="1144" height="651.26" fill="white"/>
</clipPath>
</defs>
</svg>
