<svg width="423" height="484" viewBox="0 0 423 484" fill="none" xmlns="http://www.w3.org/2000/svg">
<rect width="423" height="484" fill="#E5E5E5"/>
<g id="undraw_nature_m5ll 1" clip-path="url(#clip0)">
<path id="Vector" d="M296.445 211.934C321.866 211.934 342.474 190.122 342.474 163.216C342.474 136.309 321.866 114.498 296.445 114.498C271.024 114.498 250.417 136.309 250.417 163.216C250.417 190.122 271.024 211.934 296.445 211.934Z" fill="#FF6584"/>
<path id="Vector_2" d="M422.704 199.539C422.805 199.52 422.882 199.445 423 199.464C422.948 199.253 422.881 199.047 422.798 198.847C422.652 199.059 422.502 199.274 422.371 199.463L422.704 199.539Z" fill="white"/>
<path id="Vector_3" d="M113.984 278.522C114.252 289.151 115.934 299.687 118.98 309.819C119.05 310.054 119.123 310.286 119.196 310.521H137.843C137.823 310.311 137.803 310.075 137.784 309.819C136.54 294.69 129.372 202.609 137.943 186.862C137.193 188.14 112.538 230.45 113.984 278.522Z" fill="#E6E6E6"/>
<path id="Vector_4" d="M115.383 309.819C115.539 310.054 115.701 310.289 115.867 310.521H129.856C129.75 310.321 129.627 310.086 129.484 309.819C127.173 305.404 120.333 292.205 113.984 278.522C107.16 263.817 100.9 248.555 101.427 243.031C101.265 244.277 96.543 282.256 115.383 309.819Z" fill="#E6E6E6"/>
<path id="Vector_5" d="M260.747 312.35C260.513 321.617 259.046 330.802 256.391 339.635C256.33 339.84 256.267 340.042 256.203 340.247H239.946C239.963 340.064 239.981 339.859 239.998 339.635C241.082 326.446 247.332 246.168 239.859 232.44C240.513 233.554 262.008 270.44 260.747 312.35Z" fill="#E6E6E6"/>
<path id="Vector_6" d="M259.528 339.635C259.392 339.84 259.25 340.045 259.105 340.247H246.91C247.002 340.073 247.109 339.868 247.233 339.635C249.248 335.787 255.212 324.279 260.747 312.35C266.696 299.53 272.154 286.224 271.694 281.409C271.836 282.495 275.952 315.605 259.528 339.635Z" fill="#E6E6E6"/>
<path id="Vector_7" d="M74.8664 39.5436L82.4478 33.1256C76.5581 32.4379 74.1382 35.8377 73.1478 38.5286C68.5466 36.5064 63.5376 39.1566 63.5376 39.1566L78.7066 44.9853C77.9413 42.8219 76.6092 40.9342 74.8664 39.5436V39.5436Z" fill="#3F3D56"/>
<path id="Vector_8" d="M303.211 6.50786L310.793 0.0898812C304.903 -0.597877 302.483 2.8019 301.493 5.49285C296.892 3.47061 291.883 6.12086 291.883 6.12086L307.052 11.9495C306.286 9.7861 304.954 7.89845 303.211 6.50786V6.50786Z" fill="#3F3D56"/>
<path id="Vector_9" d="M414.758 260.309C414.758 265.626 414.583 270.901 414.233 276.132C411.532 317.401 398.013 357.055 375.193 390.64C372.211 395.045 369.079 399.327 365.799 403.485C357.299 414.275 347.862 424.197 337.611 433.12L292.679 405.214L265.814 338.848C265.814 338.848 305.897 252.946 414.686 254.504C414.732 256.432 414.756 258.367 414.758 260.309Z" fill="#3F3D56"/>
<path id="Vector_10" d="M414.233 276.132C412.166 306.971 404.082 337.022 390.491 364.388C376.901 391.754 358.098 415.842 335.271 435.131L293.528 409.208L269.703 350.348C269.703 350.348 308.309 267.616 414.233 276.132Z" fill="#6C63FF"/>
<path id="Vector_11" d="M375.193 390.64C372.211 395.045 369.079 399.327 365.799 403.485C343.818 431.437 315.732 453.298 283.972 467.175C277.541 469.982 270.959 472.456 264.225 474.6C215.604 488.285 164.094 484.823 117.498 464.739C71.416 442.969 34.1768 404.522 12.4692 356.304C9.55196 349.813 6.92855 343.157 4.59903 336.336C45.2272 304.834 125.284 259.725 212.537 303.558C236.673 315.683 258.224 326.734 277.191 336.714C325.32 361.965 357.352 380.169 375.193 390.64Z" fill="#3F3D56"/>
<path id="Vector_12" d="M365.799 403.485C343.077 432.307 313.872 454.619 280.871 468.367C247.869 482.115 212.131 486.857 176.945 482.159C141.758 477.46 108.253 463.471 79.5113 441.479C50.77 419.486 27.7156 390.196 12.4692 356.304C46.4006 327.903 124.662 276.866 210.547 320.005C232.634 331.101 252.353 341.215 269.703 350.348C320.283 376.882 351.439 394.915 365.799 403.485Z" fill="#6C63FF"/>
<path id="Vector_13" d="M305.91 455.984C298.805 460.153 291.48 463.89 283.972 467.175C258.422 478.319 231.051 484.036 203.416 484C170.716 483.986 138.464 475.949 109.194 460.519C79.9232 445.089 54.4307 422.687 34.7185 395.072C85.1942 389.439 224.719 381.843 305.91 455.984Z" fill="#3F3D56"/>
<path id="Vector_14" d="M283.972 467.175C244.353 484.418 200.723 488.525 158.851 478.954C116.979 469.382 78.8382 446.583 49.4735 413.572C67.833 410.717 211.973 391.113 283.972 467.175Z" fill="#6C63FF"/>
<path id="Vector_15" d="M379.309 136.263V136.27C228.401 18.1731 55.5026 101.296 54.1671 101.934V101.927C73.7643 81.1872 97.0344 64.743 122.645 53.5361C148.255 42.3292 175.703 36.5799 203.416 36.6173C276.783 36.6173 341.417 76.1887 379.309 136.263Z" fill="#E6E6E6"/>
<path id="Vector_16" d="M66.2709 264.645C91.7997 259.773 104.882 211.13 95.49 155.997C86.0985 100.864 57.79 60.1197 32.2612 64.9914C6.73236 69.8631 -6.3495 118.506 3.04203 173.639C12.4336 228.772 40.7421 269.517 66.2709 264.645Z" fill="#3F3D56"/>
<path id="Vector_17" d="M72.8316 329.033C71.3182 207.934 33.0371 94.2901 32.6507 93.1572L29.1596 94.4901C29.5441 95.6175 67.6151 208.666 69.1207 329.086L72.8316 329.033Z" fill="#6C63FF"/>
<path id="Vector_18" d="M4.91354 151.119L3.77133 154.857L49.6013 170.544L50.7435 166.806L4.91354 151.119Z" fill="#6C63FF"/>
<path id="Vector_19" d="M91.1237 146.908L53.3628 178.561L55.6674 181.641L93.4283 149.988L91.1237 146.908Z" fill="#6C63FF"/>
<path id="Vector_20" d="M189.023 247.186C217.093 247.186 239.848 198.044 239.848 137.423C239.848 76.8021 217.093 27.6593 189.023 27.6593C160.953 27.6593 138.198 76.8021 138.198 137.423C138.198 198.044 160.953 247.186 189.023 247.186Z" fill="#3F3D56"/>
<path id="Vector_21" d="M184.33 317.088C204.685 187.82 184.534 59.0178 184.329 57.7329L180.369 58.4428C180.574 59.7215 200.609 187.846 180.368 316.391L184.33 317.088Z" fill="#6C63FF"/>
<path id="Vector_22" d="M144.276 113.82L142.382 117.569L188.341 143.589L190.236 139.84L144.276 113.82Z" fill="#6C63FF"/>
<path id="Vector_23" d="M236.847 126.854L190.893 152.889L192.789 156.637L238.743 130.603L236.847 126.854Z" fill="#6C63FF"/>
<path id="Vector_24" d="M409.792 211.879C391.144 200.797 371.661 191.369 351.543 183.691C240.304 141.087 129.997 157.507 86.8214 218.48C120.422 143.783 240.317 120.296 361.306 166.633C375.388 172.021 389.169 178.252 402.583 185.297C405.505 193.99 407.913 202.868 409.792 211.879V211.879Z" fill="#E6E6E6"/>
<path id="Vector_25" d="M259.555 91.6777L267.137 85.2597C261.247 84.5719 258.827 87.9717 257.837 90.6627C253.236 88.6404 248.227 91.2907 248.227 91.2907L263.395 97.1193C262.63 94.9559 261.298 93.0682 259.555 91.6777Z" fill="#3F3D56"/>
</g>
<defs>
<clipPath id="clip0">
<rect width="423" height="484" fill="white"/>
</clipPath>
</defs>
</svg>
